# xmcd
#
# Track frame offsets: 
#        150
#        12566
#        22923
#        34506
#        47041
#        58475
#        72629
#        87369
#        100870
#        111873
#        121303
#        138993
#        146969
#        160267
#        173655
#        188406
#        196422
#        205643
#        218731
#
# Disc length: 3076 seconds
#
# Revision: 0
# Processed by: cddbd v1.5.1PL0 Copyright (c) Steve Scherf et al.
# Submitted via: ExactAudioCopy v0.95b1
#
DISCID=110c0213
DTITLE=Johnny Cash - The Legendary CD 1
DYEAR=1900
DGENRE=
TTITLE0=Ring Of Fire
TTITLE1=Thing Called Love
TTITLE2=I Walk The Line
TTITLE3=Folsom Prison Blues
TTITLE4=Get Rhythm
TTITLE5=Tennessee Flat Top Box
TTITLE6=Long Black Veil
TTITLE7=I Still Miss Someone
TTITLE8=Cry Cry Cry
TTITLE9=Blue Train
TTITLE10=Sunday Morning Coming Down
TTITLE11=Five Feet High And Rising
TTITLE12=Peace In The Valley
TTITLE13=Don't Take Your Guns To Town
TTITLE14=Home Of The Blues
TTITLE15=Guess Things Happen That Way
TTITLE16=I Got Stripes
TTITLE17=Ballad Of Ira Hayes
TTITLE18=The Way Of A Woman In Love
EXTD=
EXTT0=
EXTT1=
EXTT2=
EXTT3=
EXTT4=
EXTT5=
EXTT6=
EXTT7=
EXTT8=
EXTT9=
EXTT10=
EXTT11=
EXTT12=
EXTT13=
EXTT14=
EXTT15=
EXTT16=
EXTT17=
EXTT18=
PLAYORDER=
